<svg width="17" height="17" viewBox="0 0 17 17" fill="none" xmlns="http://www.w3.org/2000/svg">
<path d="M4.94615 10.6612C4.83208 10.6615 4.72607 10.5818 4.68684 10.4748C4.54281 10.0819 4.39769 9.68945 4.25354 9.29671C4.05018 8.74277 3.84755 8.18847 3.64383 7.63465C3.59281 7.4958 3.53927 7.3578 3.48632 7.21968C3.47622 7.19311 3.46081 7.17231 3.43073 7.16173C3.28706 7.11136 3.14375 7.05967 3.0008 7.00714C2.68229 6.89017 2.36426 6.77236 2.04587 6.65528C1.66912 6.51667 1.29237 6.37819 0.915382 6.24018C0.681583 6.15459 0.446341 6.07261 0.213745 5.98377C0.0557539 5.92354 -0.00958455 5.82617 0.00329061 5.68276C0.0130372 5.57336 0.0671851 5.49186 0.173074 5.45291C0.509633 5.32921 0.846915 5.20743 1.18371 5.08422C1.5003 4.96833 1.8164 4.85148 2.13275 4.73488C2.53368 4.58714 2.93389 4.43747 3.33603 4.29286C3.4329 4.25799 3.4921 4.20125 3.52735 4.10328C3.69437 3.6389 3.86608 3.17608 4.03719 2.71314C4.20529 2.25825 4.37459 1.80385 4.54317 1.34908C4.59311 1.21433 4.64376 1.07969 4.69081 0.943968C4.72896 0.833492 4.80789 0.775549 4.91968 0.764971C5.02244 0.755233 5.10992 0.791418 5.17128 0.878211C5.1974 0.915117 5.21845 0.955147 5.23349 0.997823C5.41832 1.52195 5.61421 2.04211 5.80794 2.56287C5.99505 3.0656 6.1794 3.56941 6.36494 4.07275C6.3694 4.08489 6.37674 4.09679 6.3777 4.10905C6.38576 4.2182 6.4641 4.25655 6.55254 4.28877C7.07308 4.47846 7.59326 4.66924 8.11344 4.8599C8.63567 5.0514 9.15777 5.24302 9.67988 5.43488C9.82752 5.48909 9.90369 5.5849 9.90549 5.71545C9.9067 5.80645 9.86988 5.8775 9.79407 5.92775C9.74726 5.95876 9.69612 5.981 9.64342 6.00024C9.22997 6.1511 8.81652 6.30209 8.40319 6.4532C7.84462 6.65732 7.28594 6.86144 6.72761 7.06616C6.63701 7.09934 6.55061 7.14406 6.45567 7.1657C6.42366 7.17303 6.41428 7.19792 6.40417 7.22533C6.22103 7.72265 6.03645 8.21949 5.85379 8.71705C5.68665 9.17229 5.52216 9.62838 5.35515 10.0836C5.31375 10.1964 5.26671 10.3069 5.23217 10.4223C5.21677 10.4738 5.18837 10.5204 5.1536 10.5618C5.098 10.6281 5.02882 10.6661 4.94651 10.661L4.94615 10.6612ZM1.09383 5.69622C1.12668 5.73601 1.16458 5.74587 1.1996 5.75873C1.45566 5.85238 1.71256 5.94398 1.96838 6.03822C2.54475 6.2504 3.11944 6.46738 3.69774 6.67403C3.84574 6.72692 3.93455 6.81672 3.98448 6.96074C4.05331 7.15933 4.12876 7.35564 4.20132 7.55291C4.43199 8.17909 4.66229 8.8054 4.89429 9.43111C4.90909 9.47102 4.90644 9.54423 4.94555 9.54219C4.98297 9.54026 4.99224 9.46814 5.00824 9.42462C5.1418 9.0623 5.2738 8.69938 5.40713 8.33693C5.58197 7.86173 5.75849 7.38713 5.93212 6.91145C5.97195 6.80242 6.04246 6.73269 6.15148 6.6935C6.4162 6.59866 6.67936 6.49984 6.94324 6.40271C7.29388 6.27372 7.64464 6.14473 7.9954 6.01599C8.24327 5.92498 8.49151 5.8347 8.73915 5.7431C8.75768 5.73625 8.7886 5.73589 8.78812 5.70956C8.78764 5.68348 8.75684 5.68384 8.73819 5.67687C8.31932 5.52227 7.90022 5.36804 7.48087 5.21453C7.16838 5.1002 6.85384 4.99129 6.54351 4.87132C6.39936 4.81554 6.25027 4.77298 6.10925 4.70903C6.02658 4.67153 5.96954 4.61118 5.93814 4.52619C5.87196 4.34707 5.80493 4.16831 5.73924 3.98908C5.49473 3.32226 5.25082 2.6552 5.00583 1.98862C4.98935 1.94378 4.97731 1.89545 4.93833 1.85446C4.8624 2.06567 4.7872 2.2704 4.71019 2.47464C4.57782 2.8259 4.45244 3.17993 4.32345 3.53251C4.21876 3.8185 4.10289 4.101 4.01144 4.39107C3.94838 4.59098 3.83203 4.70963 3.63421 4.77335C3.37297 4.85749 3.11703 4.95859 2.85905 5.05284C2.38724 5.22523 1.91555 5.39821 1.44362 5.57012C1.32943 5.61171 1.21969 5.66472 1.09371 5.6961L1.09383 5.69622Z" fill="currentColor"/>
<path d="M16.8423 10.3828C16.8423 10.511 16.7772 10.6012 16.6423 10.6519C16.4272 10.7326 16.2112 10.8113 15.9954 10.8904C15.5075 11.0692 15.0197 11.2481 14.5316 11.4264C14.1707 11.5583 13.8097 11.6898 13.4481 11.8198C13.391 11.8404 13.3552 11.8735 13.3344 11.9315C13.1972 12.3131 13.0583 12.694 12.9186 13.0747C12.7087 13.6468 12.4974 14.2185 12.2869 14.7904C12.2468 14.8992 12.207 15.008 12.1689 15.1174C12.1263 15.2394 12.028 15.3218 11.9168 15.3256C11.7804 15.3303 11.6807 15.2649 11.6289 15.1317C11.587 15.0238 11.5497 14.914 11.5096 14.8052C11.3285 14.3139 11.1464 13.823 10.9663 13.3313C10.7935 12.8598 10.6218 12.388 10.4518 11.9155C10.4343 11.8672 10.405 11.8433 10.3596 11.8268C9.89766 11.6586 9.43596 11.4896 8.97438 11.3205C8.4684 11.1351 7.96241 10.9494 7.45643 10.7639C7.35969 10.7284 7.26499 10.6876 7.16596 10.6577C7.02457 10.6152 6.9478 10.5197 6.94444 10.3905C6.94107 10.2649 7.02385 10.1573 7.15934 10.1086C7.41997 10.0151 7.68085 9.92217 7.94088 9.82684C8.64456 9.56898 9.34812 9.31052 10.0512 9.0511C10.156 9.01252 10.2591 8.96936 10.3663 8.93738C10.4087 8.92476 10.4331 8.89879 10.4486 8.85588C10.5608 8.54501 10.6756 8.2351 10.7892 7.92471C10.9965 7.35851 11.2037 6.79231 11.411 6.2261C11.4818 6.03268 11.5516 5.8389 11.624 5.6462C11.6576 5.55712 11.7107 5.48066 11.8061 5.45013C11.9637 5.39988 12.0999 5.466 12.1583 5.62336C12.2859 5.96741 12.4093 6.31302 12.536 6.65743C12.6693 7.01987 12.8052 7.38147 12.939 7.74391C13.0734 8.10827 13.2074 8.47276 13.3393 8.83809C13.3595 8.89411 13.3926 8.92404 13.4483 8.94411C13.8264 9.07971 14.2034 9.2182 14.5805 9.3562C15.0625 9.53256 15.5444 9.70915 16.0264 9.88598C16.23 9.96075 16.434 10.0343 16.6365 10.112C16.7807 10.1673 16.8422 10.2524 16.8423 10.3827V10.3828ZM8.0221 10.3786C8.11222 10.4327 8.20271 10.4467 8.28634 10.4777C8.76537 10.6558 9.24536 10.8315 9.72511 11.0078C10.0516 11.1279 10.3781 11.248 10.7046 11.3681C10.8055 11.4052 10.8755 11.4745 10.9123 11.5747C10.9958 11.8023 11.0768 12.0308 11.1601 12.2584C11.3101 12.6673 11.4611 13.0758 11.6117 13.4846C11.6978 13.7181 11.7839 13.9517 11.8706 14.185C11.8762 14.2002 11.8768 14.2237 11.8975 14.2246C11.9191 14.2255 11.9188 14.201 11.9263 14.1867C11.9312 14.1773 11.933 14.1664 11.9366 14.1563C12.0341 13.8882 12.1308 13.6198 12.2291 13.3521C12.4384 12.782 12.652 12.2135 12.8558 11.6416C12.9094 11.4912 12.9956 11.3984 13.147 11.3439C13.834 11.0966 14.518 10.8417 15.2034 10.5901C15.3686 10.5294 15.5346 10.4708 15.7 10.4108C15.7154 10.4052 15.7384 10.4033 15.7402 10.3838C15.7423 10.3614 15.7175 10.3611 15.7029 10.3557C15.5016 10.2809 15.3002 10.2067 15.0985 10.1328C14.7175 9.99309 14.3365 9.85364 13.9556 9.71396C13.6997 9.62007 13.447 9.51513 13.1867 9.43518C13.0101 9.38097 12.9086 9.27999 12.8494 9.10845C12.7241 8.74552 12.5863 8.38681 12.454 8.02629C12.355 7.75629 12.2572 7.48593 12.158 7.21606C12.0804 7.0046 12.0016 6.79351 11.9233 6.58229C11.9182 6.56883 11.9173 6.54863 11.8992 6.54839C11.8808 6.54803 11.8798 6.56835 11.8747 6.58169C11.8483 6.64973 11.8217 6.71765 11.7963 6.78605C11.5985 7.31908 11.4003 7.85198 11.2035 8.38537C11.1084 8.64298 11.0142 8.90084 10.923 9.15978C10.8773 9.28973 10.7888 9.36895 10.6613 9.41427C10.3943 9.50923 10.1282 9.60673 9.8624 9.7047C9.51995 9.8308 9.17834 9.95919 8.83576 10.0849C8.56995 10.1824 8.30319 10.2773 8.02234 10.3786H8.0221Z" fill="currentColor"/>
<path d="M9.56766 13.7465C9.56802 13.8373 9.52735 13.9073 9.45552 13.9598C9.41027 13.993 9.35962 14.0171 9.30691 14.0363C8.93979 14.1699 8.57279 14.3041 8.20518 14.4364C7.99557 14.5119 7.99148 14.5092 7.91808 14.7151C7.78415 15.0909 7.63519 15.4611 7.50968 15.8401C7.49416 15.8871 7.47106 15.9309 7.44098 15.9707C7.38033 16.0508 7.30079 16.1062 7.1996 16.0926C7.08745 16.0776 6.99925 16.0142 6.95918 15.9026C6.79914 15.4563 6.62406 15.0155 6.47317 14.566C6.46222 14.5336 6.4402 14.5193 6.41084 14.5074C6.13036 14.3933 5.84337 14.2964 5.55976 14.1906C5.39094 14.1276 5.22151 14.066 5.05366 14.0004C4.93694 13.9549 4.87834 13.8647 4.87966 13.7403C4.88086 13.6174 4.94921 13.5328 5.07892 13.4848C5.50381 13.3278 5.92844 13.1701 6.35417 13.0154C6.4248 12.9898 6.46427 12.9499 6.49014 12.8774C6.62912 12.4874 6.77423 12.0995 6.91718 11.711C6.93199 11.6707 6.94498 11.6297 6.96074 11.5899C7.00466 11.4793 7.08962 11.4163 7.20525 11.408C7.31078 11.4005 7.39994 11.4454 7.45241 11.541C7.53218 11.6865 7.57261 11.848 7.63158 12.0019C7.7507 12.3124 7.86441 12.625 7.97872 12.9372C7.99641 12.9855 8.03648 12.9963 8.07679 13.0111C8.46401 13.1525 8.85135 13.2938 9.23844 13.4356C9.29079 13.4548 9.34265 13.4755 9.39439 13.4964C9.49402 13.5367 9.5667 13.6424 9.56742 13.747L9.56766 13.7465ZM7.20922 12.4948C7.19129 12.5495 7.17758 12.596 7.16097 12.6414C7.09431 12.8249 7.01958 13.0058 6.96171 13.192C6.91526 13.3415 6.82393 13.4346 6.6793 13.4836C6.5858 13.5154 6.49315 13.5498 6.40025 13.5833C6.26043 13.6339 6.12073 13.6848 5.97393 13.7381C6.01087 13.7687 6.04697 13.7829 6.08271 13.7963C6.30182 13.8784 6.52094 13.9609 6.7409 14.0407C6.84703 14.0793 6.90756 14.1572 6.94414 14.2588C7.00166 14.4182 7.05785 14.5781 7.11657 14.7371C7.14713 14.8199 7.18359 14.9005 7.20585 14.9986C7.24424 14.9506 7.2606 14.9089 7.27613 14.8673C7.3547 14.6562 7.43376 14.4451 7.50968 14.233C7.54301 14.1398 7.60101 14.0757 7.69499 14.0418C7.90893 13.9644 8.1224 13.8855 8.3355 13.8058C8.37785 13.7899 8.42418 13.7783 8.46016 13.7352C8.23659 13.654 8.01964 13.5736 7.8016 13.4965C7.72808 13.4705 7.65721 13.4418 7.59463 13.3946C7.56106 13.3692 7.53784 13.3373 7.52328 13.2977C7.43845 13.066 7.35302 12.8345 7.26722 12.6031C7.25411 12.5677 7.24123 12.5318 7.2091 12.495L7.20922 12.4948Z" fill="currentColor"/>
<path d="M11.9662 2.34822C11.9665 2.46675 11.8947 2.5652 11.7742 2.6098C11.3715 2.75862 10.9709 2.9137 10.5645 3.05182C10.4407 3.0939 10.3773 3.15088 10.3346 3.27746C10.1977 3.6839 10.0418 4.08397 9.89347 4.48656C9.85159 4.6004 9.75461 4.6759 9.64535 4.68191C9.51275 4.68924 9.42154 4.62661 9.36907 4.51073C9.32756 4.41912 9.29712 4.32247 9.26246 4.22787C9.13191 3.87119 9.00159 3.51452 8.87152 3.15773C8.86093 3.12864 8.84877 3.10628 8.81508 3.09426C8.51606 2.98691 8.21789 2.87703 7.91924 2.76836C7.77604 2.71631 7.63261 2.6651 7.48894 2.61413C7.36741 2.57097 7.28739 2.46975 7.28318 2.35243C7.27873 2.22921 7.34226 2.12907 7.47053 2.08014C7.7012 1.99239 7.93452 1.91149 8.16627 1.82661C8.38406 1.74691 8.60114 1.66517 8.81905 1.58571C8.84913 1.57477 8.86237 1.55505 8.8726 1.52729C9.03288 1.08803 9.19352 0.64877 9.35488 0.209873C9.41372 0.0499902 9.54307 -0.0277875 9.68999 0.00899765C9.78686 0.0332806 9.8528 0.0991572 9.88637 0.189317C10.0154 0.535049 10.14 0.882344 10.2662 1.22916C10.3044 1.33398 10.3546 1.43436 10.3798 1.54375C10.3868 1.57405 10.4124 1.58054 10.4369 1.58944C10.8157 1.72888 11.1943 1.86869 11.5733 2.0079C11.6256 2.02713 11.6789 2.04372 11.7321 2.06067C11.8823 2.10887 11.9658 2.21106 11.966 2.34798L11.9662 2.34822ZM10.8824 2.34822C10.8509 2.33223 10.8383 2.3243 10.8246 2.31913C10.5953 2.23378 10.3673 2.1447 10.136 2.06524C10.0202 2.02545 9.94533 1.95476 9.90658 1.8414C9.82801 1.61216 9.73211 1.38916 9.65967 1.15763C9.65413 1.14008 9.65125 1.11291 9.63031 1.11171C9.60263 1.11027 9.60347 1.14152 9.59662 1.15979C9.5101 1.39084 9.42358 1.62201 9.33971 1.85402C9.30542 1.94899 9.24502 2.01655 9.1508 2.05165C8.94564 2.12811 8.7394 2.20192 8.53448 2.27886C8.48225 2.29845 8.4245 2.30783 8.3748 2.3481C8.3902 2.35615 8.39911 2.36216 8.40897 2.36565C8.6471 2.4522 8.88499 2.53912 9.12348 2.62471C9.22167 2.65993 9.2964 2.7192 9.33322 2.81921C9.4207 3.05675 9.50697 3.29477 9.59481 3.53219C9.60251 3.55287 9.60456 3.57848 9.62778 3.59134C9.64631 3.57884 9.65197 3.55948 9.65738 3.54181C9.72994 3.30367 9.83041 3.07539 9.90899 2.83941C9.94244 2.73903 10.0075 2.66318 10.1061 2.6324C10.2335 2.59273 10.3548 2.53779 10.481 2.4956C10.6106 2.45232 10.7377 2.40171 10.8828 2.3481L10.8824 2.34822Z" fill="currentColor"/>
<path d="M16.8422 4.6476C16.8442 4.76745 16.7954 4.84054 16.7074 4.895C16.5406 4.99838 16.3528 5.0467 16.1692 5.10549C16.0728 5.13638 15.9792 5.17305 15.8869 5.21392C15.7388 5.27968 15.6555 5.40338 15.603 5.54811C15.554 5.68311 15.5011 5.81691 15.4643 5.95611C15.4367 6.06046 15.389 6.15699 15.3414 6.25304C15.2455 6.44682 14.9619 6.48349 14.8475 6.27107C14.7695 6.12658 14.7166 5.97258 14.6695 5.81643C14.6335 5.69694 14.5895 5.58081 14.5392 5.46697C14.4914 5.3589 14.4138 5.28016 14.3082 5.22546C14.1141 5.12496 13.9001 5.08012 13.6975 5.00379C13.6166 4.97325 13.5382 4.93923 13.4657 4.89271C13.2792 4.77286 13.2801 4.54626 13.4677 4.42845C13.5553 4.37351 13.6506 4.33601 13.7486 4.30199C13.9228 4.24152 14.1013 4.19392 14.2698 4.11638C14.4131 4.05038 14.5048 3.94315 14.5642 3.79986C14.6515 3.58948 14.7006 3.36589 14.7935 3.15768C14.8137 3.11236 14.8363 3.06872 14.865 3.02845C14.9889 2.85486 15.2396 2.86989 15.3389 3.05947C15.3805 3.13905 15.416 3.2226 15.4468 3.30711C15.493 3.43393 15.5366 3.56208 15.5744 3.69167C15.6401 3.91694 15.7714 4.07923 15.9987 4.15545C16.1574 4.2087 16.3157 4.26292 16.4746 4.31545C16.5566 4.34262 16.6344 4.37808 16.7078 4.42352C16.8019 4.4817 16.8424 4.55359 16.842 4.6476H16.8422ZM14.4127 4.66022C14.7288 4.7933 14.9477 5.00054 15.0726 5.30168C15.0766 5.31129 15.0822 5.3256 15.0944 5.31863C15.104 5.3131 15.1105 5.29951 15.1151 5.28821C15.2225 5.02603 15.4086 4.83801 15.6591 4.71047C15.6905 4.69448 15.7213 4.67765 15.7616 4.65637C15.4387 4.5269 15.2216 4.30583 15.0889 3.97693C14.9599 4.30896 14.7374 4.52426 14.4125 4.66022H14.4127Z" fill="currentColor"/>
<path d="M1.76869 9.92939C1.83884 9.93299 1.912 9.96653 1.96663 10.0383C2.03016 10.1217 2.06446 10.2185 2.10116 10.315C2.17203 10.5015 2.21547 10.6974 2.30367 10.8779C2.3589 10.991 2.44097 11.0715 2.55275 11.128C2.72651 11.216 2.91783 11.2538 3.09784 11.324C3.18797 11.3591 3.27893 11.3909 3.36208 11.4417C3.55473 11.5591 3.55569 11.8047 3.36316 11.9206C3.18424 12.0283 2.9822 12.0759 2.78727 12.1421C2.64276 12.1913 2.49668 12.2368 2.3885 12.3541C2.30596 12.4436 2.26745 12.5566 2.22943 12.6676C2.17311 12.8319 2.12354 12.9987 2.06013 13.1606C2.03967 13.2128 2.01404 13.2622 1.98227 13.3084C1.86928 13.4735 1.63091 13.4719 1.52117 13.3038C1.4586 13.2078 1.41841 13.1014 1.38388 12.9925C1.34237 12.8617 1.2952 12.7326 1.25441 12.6016C1.17703 12.3524 0.991728 12.2274 0.755884 12.1526C0.547475 12.0865 0.33329 12.0336 0.142328 11.9217C0.00491287 11.8411 -0.0379241 11.6818 0.0354763 11.5425C0.0673634 11.4821 0.122113 11.4479 0.17951 11.4183C0.34063 11.3352 0.515347 11.2879 0.686695 11.2317C0.817492 11.1887 0.950215 11.1469 1.05923 11.0605C1.19195 10.9552 1.23792 10.7978 1.29074 10.645C1.35512 10.4587 1.40313 10.2662 1.49867 10.0914C1.5545 9.98937 1.64956 9.92686 1.76893 9.92927L1.76869 9.92939ZM2.40186 11.6841C2.39512 11.6626 2.37442 11.6585 2.3583 11.6496C2.2032 11.5644 2.05435 11.4718 1.94437 11.3282C1.88132 11.2458 1.83222 11.1556 1.78048 11.0666C1.77254 11.0529 1.76809 11.0299 1.74691 11.0329C1.73103 11.0352 1.72934 11.0555 1.72345 11.0688C1.603 11.3374 1.40409 11.5274 1.13973 11.6525C1.12565 11.6591 1.10135 11.659 1.10315 11.6815C1.10436 11.6978 1.12469 11.7011 1.13769 11.7073C1.40638 11.8345 1.60673 12.029 1.7273 12.3025C1.74138 12.3345 1.75569 12.3449 1.77651 12.3053C1.80744 12.2464 1.84029 12.1884 1.87458 12.1314C1.98937 11.9408 2.15964 11.8137 2.35529 11.7161C2.3719 11.7078 2.39283 11.7047 2.40198 11.6843L2.40186 11.6841Z" fill="currentColor"/>
</svg>
