<svg width="17" height="16" viewBox="0 0 17 16" fill="none" xmlns="http://www.w3.org/2000/svg">
<path d="M8.25597 15.268C6.9782 15.268 5.70042 15.2647 4.42273 15.2706C4.13575 15.272 3.92746 15.0784 3.9036 14.8036C3.89011 14.6486 3.96481 14.5151 4.08377 14.4119C4.17505 14.3328 4.28283 14.2975 4.40197 14.2965C4.53486 14.2954 4.66766 14.2961 4.80054 14.2962C4.87843 14.2962 4.87861 14.2965 4.87861 14.2187C4.87861 13.1474 4.87692 12.0759 4.88163 11.0046C4.88207 10.9102 4.84171 10.8607 4.77668 10.8131C4.75681 10.7986 4.74262 10.8017 4.72532 10.8169C4.56635 10.9557 4.38902 11.0656 4.19554 11.1487C3.96756 11.2467 3.73177 11.3037 3.48161 11.3144C3.0448 11.3331 2.64729 11.212 2.27613 10.9937C1.97664 10.8176 1.73633 10.5757 1.53682 10.2911C1.31141 9.96951 1.11491 9.63078 0.936429 9.28145C0.802123 9.01872 0.897574 8.73736 1.1622 8.60764C1.43888 8.47204 1.73021 8.39266 2.03838 8.37128C2.22219 8.35854 2.40476 8.35471 2.58732 8.3817C2.60249 8.38393 2.62068 8.38954 2.63185 8.37618C2.64631 8.35898 2.62981 8.34304 2.62307 8.32789C2.57836 8.22766 2.53055 8.12877 2.48903 8.02729C2.46792 7.9758 2.43669 7.96243 2.38453 7.96805C1.98711 8.01081 1.60832 7.93633 1.25525 7.75511C0.712259 7.47643 0.346065 7.03836 0.140613 6.46211C0.0432981 6.18904 0.00710444 5.9076 0.00116087 5.61938C-0.00611334 5.26551 0.0215642 4.91404 0.0627256 4.56346C0.0936853 4.29938 0.333113 4.07567 0.67713 4.13697C1.1669 4.22419 1.59537 4.434 1.9801 4.7436C2.00787 4.76596 2.0265 4.77541 2.03164 4.72703C2.04477 4.60408 2.07209 4.48354 2.09738 4.36273C2.10545 4.32397 2.10021 4.30001 2.05932 4.27845C1.66775 4.07184 1.3657 3.7749 1.1637 3.37727C0.988857 3.03311 0.91851 2.66712 0.94255 2.28375C0.969075 1.85958 1.11003 1.47194 1.33669 1.11512C1.54187 0.792159 1.77092 0.486838 2.01674 0.193901C2.15477 0.0293468 2.32616 -0.0301672 2.53472 0.014201C2.6181 0.0319305 2.68481 0.0803078 2.74558 0.136169C3.01623 0.384738 3.2216 0.679546 3.36602 1.01845C3.49846 1.32939 3.5814 1.65342 3.61609 1.98832C3.66657 2.47539 3.59551 2.9458 3.40132 3.39679C3.20581 3.85089 3.07585 4.32291 3.00807 4.8139C2.96904 5.0965 2.94775 5.37919 2.95334 5.66348C2.96159 6.08035 3.02111 6.49044 3.12499 6.89466C3.27544 7.47955 3.51842 8.0223 3.84815 8.52639C4.09841 8.90895 4.39869 9.24813 4.73499 9.55657C4.96226 9.76505 5.22183 9.93085 5.46161 10.1227C5.53843 10.1841 5.61082 10.2513 5.66316 10.3346C5.70193 10.3963 5.75009 10.4128 5.8192 10.4103C6.33469 10.3915 6.85054 10.4054 7.36621 10.4021C7.47745 10.4013 7.5887 10.4075 7.69994 10.4089C7.77463 10.4099 7.77658 10.4071 7.7765 10.3338C7.77632 9.7883 7.77614 9.24287 7.77587 8.69736C7.77587 8.62671 7.77454 8.55606 7.77587 8.48541C7.77667 8.44327 7.76195 8.43846 7.72717 8.45672C7.44862 8.60301 7.16972 8.74877 6.89073 8.89417C6.64633 9.02148 6.40034 9.14567 6.15763 9.27619C6.06138 9.32796 5.96584 9.36484 5.85442 9.37135C5.63655 9.384 5.40537 9.20376 5.37059 8.94682C5.3619 8.88294 5.37476 8.82244 5.38204 8.76035C5.42054 8.43347 5.49186 8.11184 5.53568 7.78558C5.58048 7.45184 5.64746 7.12113 5.70388 6.7889C5.72552 6.66141 5.74397 6.53347 5.7658 6.40598C5.77076 6.37685 5.76172 6.35761 5.7422 6.33827C5.19974 5.80095 4.65763 5.26328 4.11535 4.72569C4.04713 4.65807 3.97874 4.59054 3.93145 4.50555C3.79599 4.26223 3.9201 3.93099 4.18312 3.83975C4.35389 3.78051 4.53246 3.75449 4.71121 3.7397C4.9007 3.72411 5.08442 3.67734 5.27186 3.65168C5.61783 3.60437 5.96149 3.54174 6.30817 3.49889C6.43006 3.48383 6.55079 3.45915 6.67241 3.44187C6.70603 3.43706 6.72386 3.42227 6.73726 3.39233C6.89064 3.04879 7.04482 2.7056 7.19908 2.36242C7.40471 1.90484 7.60812 1.44619 7.81775 0.990479C7.90042 0.81069 8.04333 0.71055 8.24772 0.707521C8.45796 0.704403 8.61134 0.79795 8.69819 0.985758C8.88572 1.39131 9.06536 1.80051 9.24881 2.20793C9.40485 2.55459 9.56169 2.90098 9.71818 3.24747C9.72137 3.25459 9.72643 3.26136 9.72785 3.26885C9.75526 3.41264 9.85293 3.4473 9.98573 3.46557C10.3315 3.51305 10.6765 3.56891 11.0219 3.61872C11.348 3.66576 11.6717 3.73151 12.0006 3.7602C12.1212 3.77071 12.2406 3.79895 12.3527 3.84555C12.5815 3.94061 12.7797 4.29244 12.5274 4.59366C12.4151 4.72756 12.2822 4.84116 12.1589 4.96411C11.7071 5.41492 11.2538 5.86421 10.7999 6.31297C10.7618 6.35057 10.7465 6.38478 10.7564 6.44153C10.8357 6.89902 10.9151 7.35651 10.9858 7.81543C11.0302 8.10391 11.0962 8.38883 11.1237 8.67999C11.1266 8.71099 11.1352 8.74155 11.1425 8.77211C11.2085 9.04856 11.0074 9.32564 10.7577 9.36297C10.6456 9.37972 10.5365 9.37063 10.4331 9.31611C10.0648 9.12207 9.69556 8.92953 9.32661 8.73656C9.1499 8.64417 8.97257 8.55294 8.79666 8.45913C8.75736 8.43819 8.74175 8.43855 8.74184 8.48888C8.74219 9.10701 8.7421 9.72504 8.74033 10.3432C8.74015 10.4026 8.77022 10.4109 8.81759 10.4092C9.21794 10.395 9.61838 10.4035 10.0188 10.4019C10.2532 10.4009 10.4876 10.3981 10.7218 10.4097C10.7698 10.4121 10.8007 10.3963 10.8268 10.3531C10.9011 10.2304 11.0041 10.1351 11.1243 10.0578C11.4046 9.87748 11.6678 9.67453 11.91 9.44503C12.4073 8.97364 12.8 8.42678 13.0872 7.80269C13.2411 7.46832 13.3645 7.12362 13.4392 6.76378C13.4905 6.51673 13.5506 6.2694 13.5623 6.01629C13.5745 5.75409 13.5804 5.4918 13.5715 5.22853C13.5615 4.93818 13.5095 4.6554 13.451 4.37396C13.3795 4.02961 13.2595 3.69952 13.1183 3.37745C13.0033 3.1149 12.9373 2.83987 12.9093 2.55477C12.8643 2.09559 12.9349 1.65039 13.0829 1.21802C13.2233 0.807661 13.4498 0.450845 13.7652 0.148375C13.9834 -0.0608151 14.3156 -0.044422 14.5128 0.195505C14.7856 0.527464 15.0472 0.867442 15.2636 1.23896C15.4463 1.55248 15.5528 1.89263 15.5794 2.25773C15.6271 2.90998 15.4183 3.46565 14.9605 3.92644C14.8152 4.07273 14.6473 4.19256 14.4602 4.28121C14.4249 4.29796 14.4214 4.318 14.4283 4.35035C14.455 4.47481 14.4821 4.59936 14.4951 4.72632C14.4996 4.77069 14.5148 4.76267 14.5415 4.74209C14.6918 4.626 14.8455 4.51526 15.0134 4.42509C15.2947 4.27399 15.5894 4.16459 15.9079 4.12619C16.1705 4.09456 16.4267 4.29208 16.4551 4.55455C16.4969 4.94059 16.5307 5.32734 16.5151 5.7164C16.4891 6.36571 16.2596 6.92789 15.7934 7.38369C15.4841 7.68607 15.1128 7.86995 14.6866 7.94524C14.5138 7.97571 14.3418 7.98952 14.1681 7.96903C14.1043 7.96145 14.0677 7.97856 14.0433 8.04155C14.0066 8.13643 13.9606 8.22766 13.9177 8.32014C13.8873 8.3858 13.8894 8.39222 13.9644 8.38331C14.0984 8.36736 14.2326 8.35783 14.3676 8.36282C14.7149 8.37573 15.0481 8.44799 15.3614 8.60399C15.6417 8.7436 15.733 9.01988 15.5913 9.30087C15.3808 9.71854 15.1469 10.1228 14.8474 10.4822C14.487 10.9146 14.0306 11.1985 13.472 11.2935C13.0821 11.3599 12.7021 11.3102 12.3379 11.1507C12.1431 11.0654 11.964 10.9552 11.8035 10.8152C11.7841 10.7982 11.7692 10.7966 11.7467 10.8097C11.678 10.8498 11.6361 10.8939 11.6365 10.9879C11.6408 12.0612 11.6393 13.1346 11.6393 14.2079C11.6393 14.2968 11.6394 14.2952 11.7302 14.2969C11.8902 14.3 12.0512 14.2797 12.21 14.3066C12.485 14.3534 12.628 14.6005 12.616 14.7986C12.5994 15.0725 12.3912 15.2684 12.1362 15.2681C11.513 15.2676 10.8898 15.2681 10.2665 15.2681C9.59638 15.2681 8.92618 15.2681 8.25606 15.2681L8.25597 15.268ZM6.49508 7.96217C6.49632 7.96831 6.48816 7.98444 6.50511 7.99192C6.52205 7.99932 6.53473 7.98622 6.54804 7.97918C6.67064 7.91423 6.7927 7.84813 6.91574 7.78398C7.27617 7.59591 7.63864 7.41175 7.99694 7.21967C8.15804 7.13334 8.31692 7.12247 8.47934 7.19971C8.61862 7.266 8.75443 7.33994 8.89105 7.41175C9.25272 7.6017 9.61403 7.79236 9.97553 7.98248C9.98715 7.98863 9.99957 7.99994 10.0134 7.99112C10.0302 7.98034 10.0229 7.96324 10.0197 7.94836C9.98839 7.80064 9.97313 7.65034 9.94909 7.50156C9.89844 7.18831 9.83971 6.87648 9.78498 6.56386C9.76502 6.44999 9.74506 6.33596 9.73929 6.22022C9.73157 6.06707 9.79305 5.94199 9.89924 5.8365C10.0519 5.68478 10.2079 5.53626 10.3574 5.38133C10.5845 5.14594 10.8241 4.92357 11.0556 4.69282C11.0728 4.67562 11.1054 4.66324 11.0958 4.63446C11.0877 4.61041 11.0564 4.61433 11.0335 4.61183C10.665 4.57058 10.3011 4.4977 9.93339 4.45057C9.75739 4.42803 9.58432 4.38705 9.40805 4.36398C9.23542 4.34135 9.11105 4.24138 9.03467 4.08431C8.99271 3.99807 8.95421 3.90996 8.91491 3.82238C8.706 3.35767 8.49735 2.89288 8.28809 2.42835C8.28143 2.41365 8.28196 2.38826 8.25943 2.3895C8.24329 2.39048 8.24009 2.41213 8.233 2.42559C8.22386 2.44287 8.2165 2.46113 8.20842 2.47895C8.09417 2.7326 7.97964 2.98616 7.86556 3.23998C7.73871 3.52232 7.61593 3.8067 7.48393 4.08663C7.41243 4.23836 7.28868 4.34144 7.12013 4.3622C6.86828 4.39329 6.62016 4.44648 6.36831 4.47793C6.06457 4.51579 5.76429 4.5794 5.45966 4.6129C5.44254 4.61477 5.42018 4.61335 5.4138 4.63152C5.40785 4.64854 5.42941 4.6562 5.43988 4.66662C5.82603 5.05008 6.21014 5.43558 6.59994 5.8153C6.75003 5.96141 6.80211 6.13184 6.76937 6.33302C6.72307 6.61722 6.68013 6.90223 6.62469 7.18465C6.57448 7.44053 6.55327 7.70095 6.49517 7.96199L6.49508 7.96217ZM8.25872 11.3939C7.47941 11.3939 6.70009 11.3946 5.92077 11.3927C5.86134 11.3925 5.84475 11.4096 5.84484 11.4692C5.8467 12.3892 5.8467 13.3092 5.84546 14.2292C5.84546 14.2801 5.8593 14.2971 5.91155 14.2971C7.47018 14.2957 9.0289 14.2958 10.5875 14.2955C10.6707 14.2955 10.6707 14.2952 10.6707 14.2116C10.6707 13.2994 10.6707 12.3872 10.6707 11.4751C10.6707 11.421 10.6441 11.3939 10.5908 11.3938C9.81345 11.3938 9.03609 11.3938 8.25872 11.394V11.3939ZM2.04468 6.98357C2.13463 6.98696 2.13534 6.98687 2.12301 6.90856C2.09613 6.73821 2.07005 6.56724 2.01567 6.40322C1.89893 6.05113 1.68381 5.76585 1.40633 5.52664C1.29242 5.42846 1.17204 5.33758 1.03197 5.27691C0.990365 5.25891 0.98043 5.26978 0.980873 5.31094C0.982559 5.46 0.981139 5.60914 0.984244 5.7581C0.985486 5.81859 0.990365 5.87989 1.00199 5.93914C1.049 6.18031 1.14685 6.39939 1.30759 6.58533C1.50515 6.81394 1.74538 6.96789 2.04468 6.98357ZM15.5358 5.58232C15.5358 5.4755 15.536 5.40289 15.5358 5.33037C15.5356 5.25856 15.5314 5.25419 15.4682 5.28858C15.092 5.49332 14.8056 5.78786 14.607 6.16793C14.4805 6.41008 14.4602 6.68226 14.396 6.94196C14.3877 6.97591 14.4079 6.98865 14.4392 6.98678C14.5448 6.98036 14.65 6.96825 14.7481 6.92726C15.0674 6.79398 15.2843 6.55762 15.4231 6.24357C15.5213 6.02137 15.5474 5.78786 15.5358 5.58241V5.58232ZM13.8759 2.33819C13.8427 2.65357 14.0036 2.97119 14.1287 3.29763C14.144 3.33772 14.1685 3.3395 14.1988 3.30787C14.2271 3.27829 14.2594 3.25254 14.2893 3.22439C14.4576 3.06598 14.5624 2.87087 14.5968 2.64351C14.6505 2.28874 14.5789 1.9574 14.3843 1.65502C14.3102 1.53983 14.2328 1.42677 14.1564 1.313C14.147 1.29892 14.1413 1.27575 14.1219 1.27665C14.0986 1.2778 14.0972 1.30409 14.0892 1.32075C13.9431 1.62607 13.8714 1.94805 13.8758 2.33801L13.8759 2.33819ZM13.0968 10.3418C13.3831 10.3369 13.6267 10.2581 13.848 10.1024C14.1074 9.92007 14.2641 9.65555 14.4247 9.39326C14.4503 9.35148 14.4276 9.34498 14.39 9.34391C14.1273 9.3366 13.8694 9.35486 13.6159 9.43674C13.3634 9.51817 13.1332 9.63515 12.9289 9.8046C12.8052 9.90724 12.7082 10.0373 12.5859 10.1414C12.551 10.171 12.5801 10.1831 12.6018 10.1963C12.7589 10.2932 12.9319 10.333 13.0968 10.3417V10.3418ZM2.65128 2.26994C2.6551 2.21043 2.6456 2.15011 2.64294 2.08953C2.63088 1.81441 2.54935 1.5588 2.43305 1.31219C2.41425 1.27237 2.40156 1.26916 2.37575 1.30694C2.2873 1.43621 2.19771 1.56459 2.11645 1.69877C1.9424 1.98627 1.87596 2.2997 1.9251 2.62952C1.96706 2.9115 2.11334 3.14118 2.33902 3.31749C2.37353 3.3444 2.38719 3.32471 2.39863 3.2954C2.43057 3.21325 2.46082 3.1304 2.49426 3.04897C2.59664 2.79986 2.65696 2.54239 2.65119 2.27003L2.65128 2.26994ZM2.29919 9.34301C2.25626 9.34301 2.21332 9.34266 2.17038 9.34301C2.08948 9.34391 2.08274 9.35228 2.1231 9.41963C2.24109 9.61653 2.36768 9.80799 2.53454 9.96738C2.81593 10.2363 3.14469 10.3794 3.5398 10.3265C3.67544 10.3083 3.80806 10.2744 3.92542 10.1974C3.95044 10.181 3.96543 10.1688 3.93695 10.1405C3.82899 10.0327 3.72911 9.91588 3.6144 9.81601C3.23801 9.48841 2.79082 9.35121 2.2991 9.34293L2.29919 9.34301Z" fill="currentColor"/>
<path d="M8.25891 12.3523C8.5694 12.3523 8.87997 12.3519 9.19046 12.3524C9.46466 12.353 9.67721 12.5319 9.71118 12.8035C9.73221 12.9715 9.62886 13.2148 9.38881 13.299C9.31873 13.3235 9.24581 13.3374 9.17058 13.3373C8.56124 13.3367 7.95198 13.3377 7.34263 13.336C7.20034 13.3356 7.06851 13.2986 6.96197 13.1957C6.81418 13.0528 6.76965 12.8564 6.8431 12.6684C6.91416 12.4865 7.09921 12.3542 7.29206 12.3531C7.61426 12.3514 7.93654 12.3527 8.25874 12.3527V12.3524L8.25891 12.3523Z" fill="currentColor"/>
</svg>
